<svg xmlns="http://www.w3.org/2000/svg" viewBox="0 0 169.09 153.92"><defs><style>.cls-1{fill:#231f20;stroke:#231f20;stroke-miterlimit:10;stroke-width:2.76px;}.cls-2{fill:#f1f2f2;}.cls-3{fill:#ed1c24;}</style></defs><title>Lz-logo-bkg_1</title><g id="Layer_2" data-name="Layer 2"><g id="Layer_1-2" data-name="Layer 1"><rect class="cls-1" x="1.38" y="1.38" width="166.33" height="151.16"/><path class="cls-2" d="M17,123.87v-1.49a10.19,10.19,0,0,0,8.3-3.53,11.25,11.25,0,0,0,2.26-5,53.06,53.06,0,0,0,.61-9.38V58.77a51.13,51.13,0,0,0-.67-9.69A10.7,10.7,0,0,0,25.07,44a9.23,9.23,0,0,0-3.32-2.36A14.46,14.46,0,0,0,17,40.75V39.32H51v1.43a15.89,15.89,0,0,0-4.79.92A8.84,8.84,0,0,0,42.93,44a10.92,10.92,0,0,0-2.45,5.14,52.73,52.73,0,0,0-.63,9.6V94.51q0,8.24.37,12.26a22.42,22.42,0,0,0,1.43,6.57,12.91,12.91,0,0,0,5.53,6.53A19.76,19.76,0,0,0,56.91,122a25.79,25.79,0,0,0,10.66-2,16.78,16.78,0,0,0,7.09-6,26.65,26.65,0,0,0,3-6.32c.8-2.36-7.78-16.53-7.1-20.37l49.17-29.63L80.51,123.87Z"/><path class="cls-2" d="M101.81,33l45.45,6v1.42l-46,81.2h17q14.88,0,21.69-5,5.47-3.9,8.77-11.95a35.46,35.46,0,0,0,2.07-7.87l1.22.06-1.65,26.63H87.52v-1.42l46.4-81.2h-15.2a48,48,0,0,0-13,1.39,21.31,21.31,0,0,0-8.53,4.87,20.32,20.32,0,0,0-4.7,6.28A23.22,23.22,0,0,0,90.73,59c-.16.85-.29,1.75-.4,2.68L88.55,30.06Z"/><path class="cls-3" d="M115.17,116.11a2.34,2.34,0,0,0-1.91.7,7.65,7.65,0,0,0-1,1.5,3,3,0,0,1-1.87-.63,1.91,1.91,0,0,1-.75-1.61,3,3,0,0,1,1.35-2.53,5.61,5.61,0,0,1,3.41-.89,11.57,11.57,0,0,1,2.82.37c.88.23,1.72.48,2.51.74l2.24.74a7.17,7.17,0,0,0,2,.35,2.27,2.27,0,0,0,1.93-.69,8.59,8.59,0,0,0,1-1.51,2.91,2.91,0,0,1,1.89.63,2,2,0,0,1,.73,1.61,3,3,0,0,1-1.35,2.53,5.61,5.61,0,0,1-3.41.9,12.3,12.3,0,0,1-2.87-.37c-.88-.23-1.71-.48-2.49-.74l-2.21-.74A6.86,6.86,0,0,0,115.17,116.11Z"/></g></g></svg>